<svg xmlns="http://www.w3.org/2000/svg" xmlns:xlink="http://www.w3.org/1999/xlink" aria-hidden="true" role="img" class="iconify iconify--logos" width="31.88" height="32" preserveAspectRatio="xMidYMid meet" viewBox="0 0 256 257"><defs><linearGradient id="IconifyId1813088fe1fbc01fb466" x1="-.828%" x2="57.636%" y1="7.652%" y2="78.411%"><stop offset="0%" stop-color="#41D1FF"></stop><stop offset="100%" stop-color="#BD34FE"></stop></linearGradient><linearGradient id="IconifyId1813088fe1fbc01fb467" x1="43.376%" x2="50.316%" y1="2.242%" y2="89.03%"><stop offset="0%" stop-color="#FFEA83"></stop><stop offset="8.333%" stop-color="#FFDD35"></stop><stop offset="100%" stop-color="#FFA800"></stop></linearGradient></defs><path fill="url(#IconifyId1813088fe1fbc01fb466)" d="M255.153 37.938L134.897 252.976c-2.483 4.44-8.862 4.466-11.382.048L.875 37.958c-2.746-4.814 1.371-10.646 6.827-9.67l120.385 21.517a6.537 6.537 0 0 0 2.322-.004l117.867-21.483c5.438-.991 9.574 4.796 6.877 9.62Z"></path><path fill="url(#IconifyId1813088fe1fbc01fb467)" d="M185.432.063L96.44 17.501a3.268 3.268 0 0 0-2.634 3.014l-5.474 92.456a3.268 3.268 0 0 0 3.997 3.378l24.777-5.718c2.318-.535 4.413 1.507 3.936 3.838l-7.361 36.047c-.495 2.426 1.782 4.5 4.151 3.78l15.146-4.849c2.372-.762 4.949.683 5.253 3.145l5.307 38.883c.415 3.047 4.37 3.685 5.606 1.03l41.381-92.923c1.378-3.097-2.293-5.975-4.665-3.824L176 72.585c-1.724 1.634-4.403.75-4.962-1.57l-8.294-38.726c-.609-2.846-4.137-3.59-5.547-1.202L141.4 81.358c-1.238 2.102-4.493 2.94-5.386.804l-12.838-34.108c-1.093-2.902-5.183-2.718-5.959.297L96.73 174.83c-.768 2.992 2.647 5.373 5.185 3.553l86.205-61.47c3.796-2.71 8.754-.684 9.724 4.026l9.646 47.695c1.026 5.071 7.806 5.851 9.912 1.174l42.563-95.257c2.048-4.587-2.707-9.623-7.568-7.519Z"></path></svg>
